<?xml version="1.0" standalone="no"?>
<!DOCTYPE svg PUBLIC "-//W3C//DTD SVG 20010904//EN"
 "http://www.w3.org/TR/2001/REC-SVG-20010904/DTD/svg10.dtd">
<svg version="1.0" xmlns="http://www.w3.org/2000/svg"
 width="678.000000pt" height="678.000000pt" viewBox="0 0 678.000000 678.000000"
 preserveAspectRatio="xMidYMid meet">
<metadata>
Created by potrace 1.14, written by Peter Selinger 2001-2017
</metadata>
<g transform="translate(0.000000,678.000000) scale(0.100000,-0.100000)"
fill="#000000" stroke="none">
<path d="M6736 5713 c-20 -21 -38 -45 -41 -54 -3 -9 -16 -20 -28 -23 -12 -3
-48 -27 -79 -53 -31 -26 -108 -91 -170 -143 -327 -277 -840 -667 -1183 -900
-44 -30 -82 -57 -85 -61 -6 -7 -513 -341 -598 -395 -35 -21 -97 -60 -138 -86
-103 -66 -461 -281 -504 -303 -19 -10 -37 -21 -40 -24 -3 -3 -21 -14 -40 -25
-47 -25 -366 -201 -410 -226 -19 -11 -145 -75 -280 -141 -135 -67 -253 -126
-263 -131 -63 -31 -333 -148 -344 -148 -7 0 -13 -4 -13 -10 0 -5 -3 -9 -7 -8
-5 1 -66 -21 -138 -49 -327 -129 -753 -257 -960 -287 -37 -6 -83 -14 -130 -22
-11 -2 -42 -6 -70 -9 -27 -3 -68 -8 -90 -10 -55 -7 -311 -6 -360 0 -92 12
-113 16 -180 32 -202 50 -268 180 -183 363 11 25 40 84 64 132 24 47 44 89 44
92 0 9 -102 -56 -185 -119 -118 -88 -231 -207 -277 -290 -47 -87 -59 -238 -25
-318 40 -94 167 -217 224 -217 13 0 23 -6 23 -14 0 -19 146 -71 252 -90 65
-12 137 -15 328 -11 135 2 259 7 275 9 17 3 54 8 84 11 93 12 276 48 376 75
22 6 58 16 80 21 22 5 71 19 109 30 38 12 76 22 85 24 21 4 175 56 341 116
260 93 498 189 805 327 183 82 269 122 455 209 144 68 182 84 187 80 6 -6
-196 -175 -334 -280 -176 -132 -437 -301 -613 -396 -131 -71 -441 -221 -456
-221 -3 0 -24 -9 -47 -19 -23 -10 -87 -35 -142 -54 -207 -73 -215 -78 -180
-107 8 -7 15 -17 15 -22 0 -10 52 -77 120 -152 347 -389 782 -639 1288 -741
150 -30 238 -37 442 -36 158 0 200 3 335 17 89 9 126 17 250 50 727 197 1307
724 1568 1425 43 115 93 290 107 374 29 174 32 672 5 827 -3 16 -7 38 -9 50
-20 112 -127 440 -146 446 -5 2 -8 7 -5 12 3 4 -9 35 -25 69 -38 76 -52 111
-56 136 -4 22 19 49 214 251 186 193 222 232 288 309 54 62 208 262 242 311
54 81 70 109 66 116 -3 4 0 8 6 8 13 0 113 152 140 213 11 24 29 56 40 70 31
39 18 33 -24 -10z m-2417 -2541 l33 -32 -45 -44 -46 -43 -42 43 -42 43 30 28
c17 15 33 36 37 47 7 21 15 17 75 -42z m991 -157 c0 -23 50 -74 101 -102 27
-16 49 -31 49 -36 0 -4 -21 -20 -46 -36 -51 -33 -88 -73 -105 -113 -15 -37
-36 -35 -57 3 -30 56 -64 89 -113 115 -27 13 -49 26 -49 29 0 3 22 16 48 29
46 23 112 86 112 106 0 5 7 16 16 25 12 12 19 13 30 4 8 -6 14 -17 14 -24z
m-1574 -947 c3 -10 23 -30 45 -44 21 -13 39 -29 39 -35 0 -5 -16 -17 -35 -25
-23 -9 -41 -28 -55 -55 -24 -46 -37 -46 -59 -1 -9 17 -33 40 -53 52 -21 12
-38 25 -38 31 0 5 16 19 35 31 19 13 44 40 56 61 20 37 22 38 40 21 10 -9 21
-25 25 -36z m1075 -29 c6 -13 -1 -28 -31 -60 l-40 -44 -45 46 -44 46 42 45 42
45 33 -31 c19 -17 38 -38 43 -47z"/>
<path d="M2012 4979 c-13 -5 -26 -17 -29 -27 -2 -10 -17 -23 -33 -30 -16 -7
-32 -21 -35 -31 -3 -10 -24 -38 -48 -62 -39 -41 -85 -106 -169 -239 -109 -171
-259 -529 -284 -675 -2 -16 -7 -37 -9 -45 -6 -22 -17 -91 -20 -125 -2 -16 -6
-57 -10 -90 -14 -118 -6 -583 11 -638 10 -31 81 -16 354 76 273 91 477 170
815 315 201 86 252 108 430 190 123 56 158 82 84 62 -19 -5 -54 -12 -79 -15
-24 -4 -48 -9 -51 -11 -15 -9 -211 -18 -364 -17 -183 0 -242 12 -369 75 -129
63 -215 139 -281 247 -56 94 -75 174 -76 321 -1 188 10 276 43 350 11 25 22
56 24 70 3 14 31 77 62 140 80 163 83 177 34 159z"/>
</g>
</svg>
